# xmcd
#
# Track frame offsets: 
#        150
#        19007
#        38627
#        150364
#        168197
#        186982
#        206192
#        229782
#        278569
#
# Disc length: 4482 seconds
#
# Revision: 4
# Processed by: cddbd v1.5.2PL0 Copyright (c) Steve Scherf et al.
# Submitted via: ExactAudioCopy v1.3
#
DISCID=6a118009
DTITLE=Fleetwood Mac - Boston - Live At The Boston Tea Party Feb 1970 
DTITLE=CD 2 -
DYEAR=1970
DGENRE=Blues
TTITLE0=World In Harmony
TTITLE1=Oh Well
TTITLE2=Rattlesnake Shake
TTITLE3=Stranger Blues
TTITLE4=Red Hot Mama
TTITLE5=Teenage Darling
TTITLE6=Keep A-Knocking
TTITLE7=Jenny Jenny
TTITLE8=Encore Jam
EXTD=YEAR: 1970
EXTT0=
EXTT1=
EXTT2=
EXTT3=
EXTT4=
EXTT5=
EXTT6=
EXTT7=
EXTT8=
PLAYORDER=
